<svg width="24" height="24" viewBox="0 0 24 24" fill="none" xmlns="http://www.w3.org/2000/svg">
<path d="M13.41 13L20.29 19.88L18.88 21.29L12 14.41L5.12001 21.29L3.71001 19.88L13.36 10.22L13.16 10C12.9747 9.81596 12.8276 9.59707 12.7272 9.35594C12.6268 9.1148 12.5751 8.85619 12.5751 8.595C12.5751 8.33381 12.6268 8.0752 12.7272 7.83406C12.8276 7.59293 12.9747 7.37404 13.16 7.19L17.5 2.82L18.43 3.74L15.19 7L16.15 7.94L19.39 4.69L20.31 5.61L17.06 8.85L18 9.81L21.26 6.56L22.18 7.5L17.81 11.84C17.03 12.62 15.77 12.62 15 11.84L14.78 11.64L13.41 13Z" fill="#1B3D7E"/>
<path d="M3.91001 9.16L8.10001 13.34L10.93 10.5L3.91001 3.5C3.16086 4.25131 2.74017 5.26901 2.74017 6.33C2.74017 7.39099 3.16086 8.40869 3.91001 9.16Z" fill="#FE8039"/>
</svg>
