<svg width="24" height="24" viewBox="0 0 24 24" fill="none" xmlns="http://www.w3.org/2000/svg">
<path d="M11 7H19C20.0609 7 21.0783 7.42143 21.8284 8.17157C22.5786 8.92172 23 9.93913 23 11V20H21V17H3V20H1V5H3V14H11V7Z" fill="#1B3D7E"/>
<path d="M9.12132 12.1213C8.55871 12.6839 7.79565 13 7 13C6.20435 13 5.44129 12.6839 4.87868 12.1213C4.31607 11.5587 4 10.7956 4 10C4 9.20435 4.31607 8.44129 4.87868 7.87868C5.44129 7.31607 6.20435 7 7 7C7.79565 7 8.55871 7.31607 9.12132 7.87868C9.68393 8.44129 10 9.20435 10 10C10 10.7956 9.68393 11.5587 9.12132 12.1213Z" fill="#FE8039"/>
</svg>
