<svg width="24" height="24" viewBox="0 0 24 24" fill="none" xmlns="http://www.w3.org/2000/svg">
<path d="M13 2.05V4.07C16.95 4.56 20 7.92 20 12C20 15.21 18.08 18 15.28 19.28L13 17V22H18L16.78 20.78C19.91 19.07 22 15.76 22 12C22 6.82 18.05 2.55 13 2.05ZM11 2C9.05 2.2 7.2 2.96 5.68 4.21L7.1 5.63C8.2351 4.75498 9.57983 4.19295 11 4V2ZM4.2 5.68C2.96 7.2 2.2 9.05 2 11H4C4.19 9.58 4.75 8.23 5.63 7.1L4.2 5.68ZM2 13C2.2 14.95 2.97 16.8 4.22 18.32L5.64 16.9C4.76201 15.7656 4.19657 14.4209 4 13H2ZM7.11 18.37L5.68 19.79C7.19938 21.0305 9.04886 21.7988 11 22V20C9.58168 19.8114 8.23907 19.2489 7.11 18.37Z" fill="#1B3D7E"/>
<path d="M6 10V8H9C9.53043 8 10.0391 8.21071 10.4142 8.58579C10.7893 8.96086 11 9.46957 11 10V11C11 12.11 10.11 13 9 13H8V14H11V16H6V13C6 11.9 6.9 11 8 11H9V10H6Z" fill="#FE8039"/>
<path d="M12 13V8H14V11H15V8H17V11H18V13H17V16H15V13H12Z" fill="#FE8039"/>
</svg>
