<svg width="24" height="24" viewBox="0 0 24 24" fill="none" xmlns="http://www.w3.org/2000/svg">
<g clip-path="url(#clip0)">
<path d="M6.59001 0.659997C8.93001 -1.15 11.47 1.06 12.04 4.5C12.47 4.5 12.89 4.62 13.27 4.84C13.79 4.24 14.25 3.42 14.07 2.5C13.65 0.349997 16.06 -1.39 18.35 1.58C20.16 3.92 17.95 6.46 14.5 7.03C14.5 7.46 14.39 7.89 14.16 8.27C14.76 8.78 15.58 9.24 16.5 9.06C18.63 8.64 20.38 11.04 17.41 13.34C15.07 15.15 12.53 12.94 11.96 9.5C11.53 9.5 11.11 9.37 10.74 9.15C10.22 9.75 9.75001 10.58 9.93001 11.5C10.35 13.64 7.94001 15.39 5.65001 12.42C3.83001 10.07 6.05001 7.53 9.50001 6.97C9.50001 6.54 9.63001 6.12 9.85001 5.74C9.25001 5.23 8.43001 4.76 7.50001 4.94C5.37001 5.36 3.62001 2.96 6.59001 0.659997Z" fill="#1B3D7E"/>
<path d="M15 16H12.93L10 24H12.07L15 16Z" fill="#FE8039"/>
<path d="M21 16H18C17.4696 16 16.9609 16.2107 16.5858 16.5858C16.2107 16.9609 16 17.4696 16 18V22C16 22.5304 16.2107 23.0391 16.5858 23.4142C16.9609 23.7893 17.4696 24 18 24H21V22H18V18H21V16Z" fill="#FE8039"/>
<path fill-rule="evenodd" clip-rule="evenodd" d="M5 16H7C7.53043 16 8.03914 16.2107 8.41421 16.5858C8.78929 16.9609 9 17.4696 9 18V24H7V22H5V24H3V18C3 17.4696 3.21071 16.9609 3.58579 16.5858C3.96086 16.2107 4.46957 16 5 16ZM5 20V18H7V20H5Z" fill="#FE8039"/>
</g>
<defs>
<clipPath id="clip0">
<rect width="24" height="24" fill="white"/>
</clipPath>
</defs>
</svg>
